<?xml version="1.0"?>
<svg xmlns="http://www.w3.org/2000/svg" id="Capa_1" enable-background="new 0 0 511.097 511.097" height="512px" viewBox="0 0 511.097 511.097" width="512px"><g><g><path d="m105.292 270.548h-105.292c3.337 57.552 25.834 111.624 64.443 154.892l74.303-74.303c-18.377-22.413-30.442-50.189-33.454-80.589z" data-original="#000000" class="active-path" data-old_color="#000000" fill="#FFFFFF"/><path d="m105.292 240.548c3.012-30.4 15.076-58.175 33.454-80.589l-74.303-74.303c-38.609 43.268-61.106 97.341-64.443 154.892z" data-original="#000000" class="active-path" data-old_color="#000000" fill="#FFFFFF"/><path d="m405.804 270.548c-3.012 30.4-15.076 58.175-33.454 80.589l74.303 74.303c38.609-43.268 61.106-97.341 64.443-154.892z" data-original="#000000" class="active-path" data-old_color="#000000" fill="#FFFFFF"/><path d="m255.548 134.548c-66.72 0-121 54.28-121 121s54.28 121 121 121 121-54.28 121-121-54.28-121-121-121zm15.344 185.861v2.989c0 8.698-6.921 15.15-15 15.15-8.284 0-15-6.716-15-15v-1.443c-6.916-1.211-13.231-3.797-21.205-9.016-7.107-4.652-8.776-14.126-4.337-20.911 4.536-6.934 13.831-8.876 20.765-4.341 7.311 4.783 9.655 5.158 19.678 5.087 9.648-.064 13.494-7.639 14.244-12.104.9-5.353-1.394-9.655-7.517-11.821-11.416-4.04-24.862-9.169-34.272-16.547-20.622-16.169-14.39-53.207 12.646-63.032v-2.022c0-8.698 6.921-15.15 15-15.15 8.284 0 15 6.716 15 15v1.265c7.649 2.226 13.545 5.973 16.908 9.074-.11.12-.121.074-.021.162 6.054 5.604 6.451 15.05.872 21.139-5.586 6.096-15.047 6.519-21.156.956-3.87-2.866-9.769-4.103-15.982-2.22-3.55 1.07-5.473 4.87-5.495 8.276.018 1.564.467 2.582.743 2.798 5.658 4.438 16.195 8.492 25.756 11.871 39.3 13.892 34.942 66.623-1.627 79.84z" data-original="#000000" class="active-path" data-old_color="#000000" fill="#FFFFFF"/><path d="m372.351 159.959c18.377 22.414 30.442 50.189 33.454 80.589h105.292c-3.337-57.551-25.834-111.624-64.443-154.892z" data-original="#000000" class="active-path" data-old_color="#000000" fill="#FFFFFF"/><path d="m270.548 0v105.292c30.4 3.012 58.175 15.076 80.589 33.454l74.303-74.303c-43.267-38.609-97.34-61.106-154.892-64.443z" data-original="#000000" class="active-path" data-old_color="#000000" fill="#FFFFFF"/><path d="m351.138 372.351c-22.414 18.377-50.189 30.442-80.589 33.454v105.292c57.551-3.337 111.625-25.834 154.892-64.443z" data-original="#000000" class="active-path" data-old_color="#000000" fill="#FFFFFF"/><path d="m240.548 405.804c-30.4-3.012-58.175-15.076-80.589-33.454l-74.303 74.303c43.268 38.609 97.341 61.106 154.892 64.443z" data-original="#000000" class="active-path" data-old_color="#000000" fill="#FFFFFF"/><path d="m159.959 138.746c22.414-18.377 50.189-30.442 80.589-33.454v-105.292c-57.551 3.337-111.624 25.834-154.892 64.443z" data-original="#000000" class="active-path" data-old_color="#000000" fill="#FFFFFF"/></g></g> </svg>
